<svg xmlns="http://www.w3.org/2000/svg" viewBox="-7 -7 304.914 114">
<g transform="translate(-0.054 -0.035) scale(0.952)"><g id="sym-art">
  <path d="M85.53 76.48C83.8 77.38 80.3 79.22 77.74 80.56C64.83 87.34 49.91 94.84 48.75 95.13C47.72 95.39 46.38 95.45 45.35 95.3C43.81 95.08 44.23 95.28 33.8 89.89C27.04 86.4 20.03 82.73 10.14 77.49C7.46 76.08 5.23 74.92 5.17 74.92C4.8 74.93 1.92 76.6 1.4 77.11C-0.47 78.95 -0.26 81.89 1.86 83.42C2.13 83.61 3.55 84.38 5.02 85.13C6.48 85.88 8.62 86.99 9.77 87.59C10.92 88.19 14.85 90.23 18.5 92.11C22.14 93.99 26.56 96.27 28.32 97.18C30.07 98.08 32.54 99.35 33.8 100C35.07 100.65 36.62 101.45 37.25 101.78C43.68 105.12 43.96 105.22 46.93 105.09C49.27 105 48.31 105.42 67.02 96.07C76.28 91.44 83.9 87.61 83.96 87.57C84.02 87.52 85.82 86.61 87.96 85.53C92.33 83.34 92.69 83.09 93.32 81.86C93.66 81.18 93.68 81.1 93.68 80.05C93.68 78.17 92.93 77.14 90.75 75.98C90.06 75.61 89.31 75.2 89.08 75.07L88.66 74.84 85.53 76.48" fill="#18181B"/>
  <path d="M8.31 61.97C7.27 62.15 6.73 62.39 4.46 63.65C1.76 65.15 1.17 65.64 0.57 66.9C-0.36 68.87 -0.01 71.02 1.5 72.57C2.06 73.16 4.46 74.62 5.07 74.75C5.13 74.77 5.34 74.86 5.54 74.97C6.15 75.29 7.46 75.98 10.24 77.45C14.27 79.59 16.64 80.83 19.23 82.18C21.81 83.53 23.28 84.3 24.71 85.06C25.23 85.34 26.29 85.89 27.06 86.29C27.84 86.69 28.87 87.22 29.36 87.48C30.9 88.3 37.05 91.48 41.96 93.99C43.8 94.94 44.53 95.16 46.12 95.26C48.31 95.4 48.65 95.28 55.75 91.72C62.55 88.31 69.18 84.96 69.33 84.85C69.39 84.81 70.28 84.34 71.32 83.81C74.08 82.38 80.06 79.26 84.58 76.88C86.76 75.73 88.6 74.78 88.66 74.77C89.34 74.64 91.93 73.05 92.52 72.4C94.87 69.79 93.98 66.14 90.54 64.27C89.97 63.96 89.01 63.43 88.42 63.09C86.65 62.07 85.31 61.74 83.85 61.97C82.66 62.15 82.35 62.28 77.32 64.79C72.24 67.33 64.27 71.26 64.22 71.26C64.2 71.26 62.73 71.98 60.96 72.84C59.18 73.71 57.31 74.62 56.79 74.87C55.98 75.25 50.17 78.07 48.8 78.74C47.63 79.32 46.59 79.46 45.65 79.17C45.4 79.09 42.79 77.84 39.86 76.39C36.93 74.94 33.78 73.39 32.86 72.94C26.65 69.89 19.42 66.29 15.99 64.53C10.94 61.95 10.05 61.65 8.31 61.97" fill="#818CF8"/>
  <path d="M47.75 0.15C46.73 0.37 45.83 0.74 44.13 1.65C43.28 2.11 41.38 3.11 39.92 3.87C38.45 4.63 37.06 5.36 36.83 5.49C36.6 5.61 35.45 6.22 34.27 6.84C33.1 7.46 31.68 8.2 31.14 8.49C30.59 8.78 30.1 9.05 30.04 9.09C29.98 9.13 28.64 9.84 27.06 10.66C25.48 11.48 23.65 12.44 22.99 12.8C22.33 13.16 19.29 14.76 16.25 16.35C9.4 19.94 4.16 22.73 3.64 23.05C2.39 23.84 1.13 25.55 0.67 27.12C0.39 28.04 0.31 46.94 0.58 48.15C0.85 49.38 1.37 50.29 2.36 51.28C3.19 52.11 3.31 52.18 5.19 53.1C6.27 53.62 10.92 55.9 15.52 58.15C20.11 60.41 25.29 62.94 27.01 63.79C28.74 64.63 32.45 66.47 35.27 67.86C41.61 71.01 41.66 71.03 43.76 70.92C45.35 70.84 45.77 70.69 49.16 69.1C50.83 68.32 53.56 67.05 55.22 66.28C62.16 63.06 62.45 62.88 62.78 61.78C63.23 60.28 62.72 59.51 60.15 57.77C57.62 56.05 53.46 53.2 48.64 49.88C47.89 49.36 45.05 47.45 42.32 45.62C36.95 42.03 36.34 41.54 35.6 40.2C34.93 38.99 34.76 38.34 34.76 36.94C34.75 35.11 35.23 33.85 36.5 32.38C37.25 31.51 37.23 31.52 42.89 28.26C44.27 27.47 46.13 26.39 47.02 25.88C47.91 25.36 48.99 24.74 49.42 24.5C51.59 23.3 53.37 22.27 58.25 19.38C65.7 14.99 68.22 13.45 68.62 13.05C69.89 11.81 69.92 10 68.7 8.69C68.16 8.11 67.96 8 60.43 4.26C56.06 2.08 52.44 0.34 52.09 0.25C51.23 0.02 48.65 -0.04 47.75 0.15" fill="#FFFFFF"/>
  <path d="M82.84 26.01C81.91 26.31 81.01 26.92 74.71 31.55C73.88 32.17 72.52 33.16 71.7 33.76C70.87 34.36 70 35.01 69.76 35.2C68.4 36.31 67.97 38.09 68.69 39.67C69.11 40.57 69.33 40.77 71.94 42.65C72.97 43.39 76.54 45.99 77.38 46.61C82.13 50.11 82.4 50.26 84.11 50.26C85.93 50.26 86.12 50.16 90.7 46.81C91.67 46.1 94.54 44.03 97.48 41.93C98.83 40.96 99.1 40.72 99.46 40.15C100.15 39.08 100.26 37.73 99.75 36.62C99.41 35.87 98.97 35.42 97.6 34.39C96.94 33.89 94.41 31.99 91.98 30.17C89.55 28.34 87.34 26.71 87.07 26.54C85.94 25.82 84.14 25.6 82.84 26.01" fill="#5B5BD6"/>
</g></g><path d="M5.95703125 0.0H20.60546875V-20.21484375L28.02734375 -29.19921875L47.65625 0.0H65.234375L38.57421875 -39.0625L64.94140625 -70.703125H47.265625L21.58203125 -39.35546875H20.60546875V-70.703125H5.95703125ZM72.265625 0.0H86.9140625V-23.046875H99.609375C115.91796875 -23.046875 125.29296875 -32.71484375 125.29296875 -46.875C125.29296875 -60.83984375 116.11328125 -70.703125 100.0 -70.703125H72.265625ZM86.9140625 -34.86328125V-58.69140625H97.265625C105.95703125 -58.69140625 110.15625 -53.90625 110.15625 -46.875C110.15625 -39.74609375 105.95703125 -34.86328125 97.265625 -34.86328125ZM168.26171875 -22.55859375C168.26171875 -15.33203125 163.28125 -11.5234375 158.0078125 -11.5234375C152.34375 -11.5234375 148.73046875 -15.52734375 148.73046875 -21.77734375V-53.02734375H134.27734375V-19.23828125C134.27734375 -6.8359375 141.50390625 0.68359375 152.1484375 0.68359375C160.15625 0.68359375 165.8203125 -3.41796875 168.26171875 -9.5703125H168.84765625V0.0H182.71484375V-53.02734375H168.26171875ZM194.23828125 0.0H208.49609375V-8.49609375H209.08203125C211.1328125 -4.1015625 215.52734375 0.87890625 224.21875 0.87890625C236.328125 0.87890625 245.80078125 -8.7890625 245.80078125 -26.46484375C245.80078125 -44.62890625 235.9375 -53.7109375 224.21875 -53.7109375C215.33203125 -53.7109375 211.1328125 -48.4375 209.08203125 -44.140625H208.69140625V-70.703125H194.23828125ZM208.3984375 -26.5625C208.3984375 -36.1328125 212.40234375 -42.1875 219.62890625 -42.1875C227.05078125 -42.1875 230.95703125 -35.83984375 230.95703125 -26.5625C230.95703125 -17.1875 227.05078125 -10.64453125 219.62890625 -10.64453125C212.5 -10.64453125 208.3984375 -16.9921875 208.3984375 -26.5625ZM280.2734375 0.0C301.85546875 0.0 314.84375 -13.28125 314.84375 -35.44921875C314.84375 -57.421875 301.85546875 -70.703125 280.56640625 -70.703125H255.37109375V0.0ZM270.01953125 -12.59765625V-58.10546875H279.78515625C293.1640625 -58.10546875 300.1953125 -51.171875 300.1953125 -35.44921875C300.1953125 -19.62890625 293.1640625 -12.59765625 279.6875 -12.59765625ZM322.65625 -14.84375C322.65625 -4.296875 330.17578125 0.9765625 340.33203125 0.9765625C348.2421875 0.9765625 353.22265625 -2.44140625 355.859375 -7.32421875H356.25V0.0H369.921875V-35.7421875C369.921875 -48.53515625 358.984375 -53.7109375 347.4609375 -53.7109375C333.3984375 -53.7109375 325.390625 -46.484375 324.51171875 -37.3046875H338.28125C339.0625 -40.91796875 342.1875 -43.1640625 347.0703125 -43.1640625C352.44140625 -43.1640625 355.46875 -40.52734375 355.56640625 -36.1328125V-31.8359375C353.3203125 -31.73828125 346.19140625 -31.396484375 342.3828125 -31.15234375C332.2265625 -30.56640625 322.65625 -26.66015625 322.65625 -14.84375ZM336.5234375 -15.234375C336.5234375 -19.3359375 339.74609375 -21.6796875 344.7265625 -22.16796875C347.216796875 -22.412109375 353.369140625 -22.75390625 355.56640625 -22.8515625V-18.9453125C355.6640625 -13.37890625 350.9765625 -8.984375 344.43359375 -8.984375C339.84375 -8.984375 336.5234375 -11.1328125 336.5234375 -15.234375ZM408.88671875 -53.02734375H398.92578125V-65.72265625H384.47265625V-53.02734375H377.1484375V-42.1875H384.47265625V-14.2578125C384.375 -4.00390625 391.50390625 0.68359375 401.953125 0.68359375C405.56640625 0.68359375 408.10546875 0.48828125 409.66796875 0.1953125V-11.23046875C407.91015625 -11.03515625 405.37109375 -10.9375 403.90625 -10.9375C400.9765625 -11.03515625 398.92578125 -12.109375 398.92578125 -16.30859375V-42.1875H408.88671875ZM415.4296875 -14.84375C415.4296875 -4.296875 422.94921875 0.9765625 433.10546875 0.9765625C441.015625 0.9765625 445.99609375 -2.44140625 448.6328125 -7.32421875H449.0234375V0.0H462.6953125V-35.7421875C462.6953125 -48.53515625 451.7578125 -53.7109375 440.234375 -53.7109375C426.171875 -53.7109375 418.1640625 -46.484375 417.28515625 -37.3046875H431.0546875C431.8359375 -40.91796875 434.9609375 -43.1640625 439.84375 -43.1640625C445.21484375 -43.1640625 448.2421875 -40.52734375 448.33984375 -36.1328125V-31.8359375C446.09375 -31.73828125 438.96484375 -31.396484375 435.15625 -31.15234375C425.0 -30.56640625 415.4296875 -26.66015625 415.4296875 -14.84375ZM429.296875 -15.234375C429.296875 -19.3359375 432.51953125 -21.6796875 437.5 -22.16796875C439.990234375 -22.412109375 446.142578125 -22.75390625 448.33984375 -22.8515625V-18.9453125C448.4375 -13.37890625 443.75 -8.984375 437.20703125 -8.984375C432.6171875 -8.984375 429.296875 -11.1328125 429.296875 -15.234375Z" fill="#FFFFFF" transform="translate(112.17 43) scale(0.381879)"/><path d="M45.703125 -52.05078125H56.15234375C55.859375 -63.4765625 45.80078125 -71.6796875 31.4453125 -71.6796875C17.1875 -71.6796875 6.25 -63.57421875 6.25 -51.3671875C6.25 -41.50390625 13.37890625 -35.7421875 24.70703125 -32.6171875L33.10546875 -30.37109375C40.625 -28.41796875 46.38671875 -25.87890625 46.484375 -19.7265625C46.38671875 -12.79296875 39.84375 -8.203125 30.859375 -8.203125C22.55859375 -8.203125 15.8203125 -11.9140625 15.13671875 -19.62890625H4.39453125C5.078125 -6.73828125 15.0390625 1.171875 30.859375 1.171875C47.55859375 1.171875 57.03125 -7.6171875 57.12890625 -19.53125C57.03125 -32.32421875 45.80078125 -37.3046875 36.71875 -39.453125L29.8828125 -41.30859375C24.31640625 -42.67578125 16.9921875 -45.21484375 16.9921875 -51.953125C16.9921875 -58.0078125 22.4609375 -62.40234375 31.15234375 -62.40234375C39.2578125 -62.40234375 45.01953125 -58.59375 45.703125 -52.05078125ZM107.578125 -53.02734375H96.73828125V-65.72265625H86.38671875V-53.02734375H78.57421875V-44.7265625H86.38671875V-13.4765625C86.2890625 -3.80859375 93.61328125 0.68359375 101.81640625 0.68359375C104.6484375 0.68359375 106.89453125 0.48828125 108.359375 0.29296875V-8.7890625C106.89453125 -8.69140625 104.55078125 -8.49609375 103.0859375 -8.49609375C99.765625 -8.59375 96.73828125 -9.66796875 96.73828125 -15.625V-44.7265625H107.578125ZM166.42578125 -22.0703125C166.42578125 -12.98828125 159.6875 -8.7890625 153.92578125 -8.7890625C147.578125 -8.7890625 143.18359375 -13.37890625 143.18359375 -20.60546875V-53.02734375H132.734375V-19.3359375C132.734375 -6.15234375 139.9609375 0.68359375 150.21484375 0.68359375C158.125 0.68359375 163.59375 -3.515625 166.03515625 -9.1796875H166.62109375V0.0H176.77734375V-53.02734375H166.42578125ZM224.29687500000003 1.07421875C233.96484375000003 1.07421875 237.77343750000003 -4.78515625 239.72656250000003 -8.30078125H240.50781250000003V0.0H250.66406250000003V-70.703125H240.21484375000003V-44.43359375H239.72656250000003C237.87109375000003 -47.75390625 234.25781250000003 -53.7109375 224.39453125000003 -53.7109375C211.60156250000003 -53.7109375 202.12890625000003 -43.65234375 202.12890625000003 -26.3671875C202.12890625000003 -9.27734375 211.50390625000003 1.07421875 224.29687500000003 1.07421875ZM226.64062500000003 -7.8125C217.55859375000003 -7.8125 212.77343750000003 -15.91796875 212.77343750000003 -26.5625C212.77343750000003 -37.01171875 217.36328125000003 -44.82421875 226.64062500000003 -44.82421875C235.62500000000003 -44.82421875 240.50781250000003 -37.59765625 240.50781250000003 -26.5625C240.50781250000003 -15.4296875 235.52734375000003 -7.8125 226.64062500000003 -7.8125ZM279.23828125 0.0H289.6875V-53.02734375H279.23828125ZM284.51171875 -61.23046875C288.02734375 -61.23046875 291.0546875 -63.96484375 291.0546875 -67.3828125C291.0546875 -70.80078125 288.02734375 -73.53515625 284.51171875 -73.53515625C280.8984375 -73.53515625 277.87109375 -70.80078125 277.87109375 -67.3828125C277.87109375 -63.96484375 280.8984375 -61.23046875 284.51171875 -61.23046875ZM339.84375 1.07421875C354.78515625 1.07421875 364.55078125 -9.86328125 364.55078125 -26.26953125C364.55078125 -42.7734375 354.78515625 -53.7109375 339.84375 -53.7109375C324.8046875 -53.7109375 315.0390625 -42.7734375 315.0390625 -26.26953125C315.0390625 -9.86328125 324.8046875 1.07421875 339.84375 1.07421875ZM339.84375 -7.6171875C330.078125 -7.6171875 325.48828125 -16.11328125 325.48828125 -26.26953125C325.48828125 -36.42578125 330.078125 -45.1171875 339.84375 -45.1171875C349.4140625 -45.1171875 354.00390625 -36.42578125 354.00390625 -26.26953125C354.00390625 -16.11328125 349.4140625 -7.6171875 339.84375 -7.6171875Z" fill="#5B5BD6" transform="translate(112.17 71) scale(0.219227)"/>
</svg>
